<?xml version="1.0" encoding="utf-8"?>
<!-- Generator: Adobe Illustrator 27.5.0, SVG Export Plug-In . SVG Version: 6.00 Build 0)  -->
<svg version="1.1" xmlns="http://www.w3.org/2000/svg" xmlns:xlink="http://www.w3.org/1999/xlink" x="0px" y="0px"
	 viewBox="0 0 2000 2000" style="enable-background:new 0 0 2000 2000;" xml:space="preserve">
<g id="BACKGROUND">
	<rect x="-2.383" y="-2.383" style="fill:#C0B9FB;" width="2004.766" height="2004.766"/>
</g>
<g id="OBJECTS">
	<g>
		<g>
			<circle style="fill:#FF99D8;" cx="999.462" cy="999.075" r="182.579"/>
			<path style="fill:#FFF9E9;" d="M999.462,1191.618c-51.43,0-99.782-20.028-136.149-56.394
				c-36.367-36.367-56.395-84.719-56.395-136.149c0-51.43,20.028-99.782,56.395-136.149c36.367-36.367,84.719-56.395,136.149-56.395
				c51.43,0,99.782,20.028,136.149,56.395c36.367,36.367,56.395,84.719,56.395,136.149c0,51.431-20.028,99.782-56.395,136.149
				C1099.244,1171.59,1050.892,1191.618,999.462,1191.618z M999.462,826.46c-95.18,0-172.615,77.435-172.615,172.615
				s77.435,172.615,172.615,172.615c95.18,0,172.615-77.435,172.615-172.615S1094.642,826.46,999.462,826.46z"/>
			<path style="fill:#C0B9FB;" d="M1137.927,1275.42h-276.85c-17.483,0-32.001-13.495-33.277-30.931l-14.723-201.184h372.769
				l-14.728,201.264C1169.846,1261.959,1155.365,1275.42,1137.927,1275.42z"/>
			<path style="fill:#FFF9E9;" d="M1137.927,1285.384h-276.85c-22.585,0-41.567-17.644-43.215-40.169l-14.723-201.183
				c-0.202-2.762,0.754-5.483,2.639-7.511c1.885-2.028,4.529-3.181,7.299-3.181h372.769c2.769,0,5.413,1.152,7.299,3.181
				c1.885,2.028,2.842,4.75,2.639,7.511l-14.728,201.264C1179.412,1267.776,1160.467,1285.384,1137.927,1285.384z M823.797,1053.269
				l13.94,190.492c0.89,12.165,11.141,21.694,23.339,21.694h276.85c12.153,0,22.367-9.494,23.254-21.614l13.945-190.573H823.797z"/>
			<path style="fill:#C0B9FB;" d="M1197.549,1043.305H801.374c-11.908,0-21.651-9.743-21.651-21.651v-6.236
				c0-11.908,9.743-21.65,21.651-21.65h396.174c11.908,0,21.651,9.742,21.651,21.65v6.236
				C1219.2,1033.561,1209.456,1043.305,1197.549,1043.305z"/>
			<path style="fill:#FFF9E9;" d="M1197.549,1053.269H801.374c-17.433,0-31.616-14.182-31.616-31.616v-6.236
				c0-17.432,14.183-31.615,31.616-31.615h396.174c17.433,0,31.615,14.182,31.615,31.615v6.236
				C1229.164,1039.087,1214.981,1053.269,1197.549,1053.269z M801.374,1003.732c-6.444,0-11.686,5.242-11.686,11.685v6.236
				c0,6.444,5.242,11.687,11.686,11.687h396.174c6.444,0,11.687-5.243,11.687-11.687v-6.236c0-6.443-5.243-11.685-11.687-11.685
				H801.374z"/>
			<path style="fill:#FF99D8;" d="M913.712,982.929v107.365c0,12.945-10.591,23.536-23.536,23.536l0,0
				c-12.945,0-23.536-10.591-23.536-23.536V982.929"/>
			<path style="fill:#FFF9E9;" d="M890.176,1124.794c-18.472,0-33.501-15.028-33.501-33.501V983.929h19.929v107.364
				c0,7.484,6.088,13.572,13.572,13.572c7.483,0,13.572-6.088,13.572-13.572V983.929h19.929v107.364
				C923.677,1109.766,908.648,1124.794,890.176,1124.794z"/>
			<path style="fill:#FF99D8;" d="M995.933,982.929v68.678c0,12.945-10.591,23.536-23.537,23.536l0,0
				c-12.945,0-23.536-10.591-23.536-23.536v-68.678"/>
			<path style="fill:#FFF9E9;" d="M972.396,1086.107c-18.472,0-33.501-15.028-33.501-33.501v-68.678h19.929v68.678
				c0,7.484,6.088,13.572,13.572,13.572c7.484,0,13.573-6.088,13.573-13.572v-68.678h19.929v68.678
				C1005.898,1071.079,990.869,1086.107,972.396,1086.107z"/>
		</g>
		<path id="SVGID_x5F_1_x5F_" style="fill:none;" d="M1407.228,1045.957c0,225.203-182.563,407.767-407.767,407.767
			s-407.767-182.563-407.767-407.767s182.563-407.766,407.767-407.766S1407.228,820.754,1407.228,1045.957z"/>
		<text>		<textPath  xlink:href="#SVGID_x5F_1_x5F_" startOffset="3799.9958%">
<tspan  style="fill:#FFF9E9; font-family:'Chicle-Regular'; font-size:320.2935px;">Cool Cone</tspan>		</textPath>
</text>
		<g>
			<path id="SVGID_x5F_00000072281629331075193510000014316274212647381134_x5F_" style="fill:none;" d="M1507.206,1045.957
				c0-280.42-227.325-507.745-507.745-507.745s-507.745,227.325-507.745,507.745s227.325,507.745,507.745,507.745
				S1507.206,1326.377,1507.206,1045.957z"/>
			<text>			<textPath  xlink:href="#SVGID_x5F_00000072281629331075193510000014316274212647381134_x5F_" startOffset="66.572%">
<tspan  style="fill:#FFF9E9; font-family:'DeliusUnicase-Bold'; font-size:117.4409px;">Ice Creams</tspan>			</textPath>
</text>
		</g>
		<g>
			
				<text transform="matrix(1 0 0 1 429.9185 1134.1486)" style="fill:#FFF9E9; font-family:'DeliusUnicase-Bold'; font-size:85.4116px;">EST.</text>
			
				<text transform="matrix(1 0 0 1 1386.1938 1134.1486)" style="fill:#FFF9E9; font-family:'DeliusUnicase-Bold'; font-size:85.4116px;">2002</text>
		</g>
	</g>
</g>
</svg>
